<svg width="257" height="187" viewBox="0 0 257 187" fill="none" xmlns="http://www.w3.org/2000/svg">
<g clip-path="url(#clip0_2_5973)">
<path opacity="0.1" d="M170.955 11.8434C107.11 -14.4746 30.536 30.7717 12.8122 68.093C-29.7472 157.71 44.627 199.068 77.3453 183.941C91.0042 177.625 102.161 166.84 112.944 156.347C129.135 140.727 150.587 131.725 173.082 131.112C190.406 130.714 207.648 135.36 224.923 133.996C242.198 132.632 257.458 108.82 256.989 91.5065C256.275 65.0812 239.418 40.0641 170.955 11.8434Z" fill="#054871"/>
<path d="M214.916 9.49463H42.0846C36.3534 9.49463 31.7074 14.1382 31.7074 19.8662V155.8C31.7074 161.528 36.3534 166.172 42.0846 166.172H214.916C220.647 166.172 225.293 161.528 225.293 155.8V19.8662C225.293 14.1382 220.647 9.49463 214.916 9.49463Z" fill="white"/>
<path d="M214.916 166.498H42.0844C39.2468 166.495 36.5264 165.367 34.5199 163.361C32.5135 161.356 31.3849 158.637 31.3817 155.801V19.8667C31.3849 17.0306 32.5135 14.3116 34.5199 12.3062C36.5264 10.3007 39.2468 9.17267 42.0844 9.16943H214.916C217.753 9.17267 220.474 10.3007 222.48 12.3062C224.487 14.3116 225.615 17.0306 225.618 19.8667V155.801C225.615 158.637 224.487 161.356 222.48 163.361C220.474 165.367 217.753 166.495 214.916 166.498ZM42.0844 9.8203C39.4195 9.82335 36.8646 10.8828 34.9802 12.7662C33.0958 14.6496 32.0359 17.2032 32.0329 19.8667V155.801C32.0359 158.464 33.0958 161.018 34.9802 162.901C36.8646 164.784 39.4195 165.844 42.0844 165.847H214.916C217.581 165.844 220.136 164.784 222.02 162.901C223.904 161.018 224.964 158.464 224.967 155.801V19.8667C224.964 17.2032 223.904 14.6496 222.02 12.7662C220.136 10.8828 217.581 9.82335 214.916 9.8203H42.0844Z" fill="#292A2E"/>
<path d="M225.293 19.8679V39.535H31.7081V19.8679C31.7078 18.5055 31.9759 17.1565 32.4974 15.8978C33.0188 14.6391 33.7832 13.4954 34.747 12.5321C35.7108 11.5687 36.855 10.8046 38.1143 10.2833C39.3736 9.76209 40.7234 9.49391 42.0864 9.49414H214.916C217.669 9.4946 220.308 10.5878 222.254 12.5332C224.2 14.4786 225.293 17.117 225.293 19.8679Z" fill="#054871"/>
<path d="M225.642 39.8842H31.3589V19.8676C31.3616 17.0247 32.4926 14.299 34.5038 12.2887C36.515 10.2784 39.242 9.14758 42.0864 9.14453H214.916C217.76 9.14805 220.487 10.279 222.498 12.2893C224.509 14.2996 225.64 17.025 225.642 19.8676V39.8842ZM32.0587 39.1854H224.943V19.8676C224.941 17.2103 223.883 14.6625 222.004 12.7833C220.124 10.904 217.575 9.84668 214.916 9.84326H42.0864C39.4274 9.84622 36.8781 10.9034 34.998 12.7827C33.1179 14.662 32.0606 17.21 32.058 19.8676L32.0587 39.1854Z" fill="#054871"/>
<path d="M81.9902 19.6837V5.1651C81.9902 2.49236 79.8224 0.325684 77.1482 0.325684C74.474 0.325684 72.3062 2.49236 72.3062 5.1651V19.6837C72.3062 22.3564 74.474 24.5231 77.1482 24.5231C79.8224 24.5231 81.9902 22.3564 81.9902 19.6837Z" fill="white"/>
<path d="M77.1468 24.8483C75.7769 24.8464 74.4637 24.3016 73.4952 23.3333C72.5266 22.3651 71.9819 21.0524 71.9804 19.6833V5.16502C71.9748 4.48319 72.1043 3.80699 72.3615 3.17544C72.6187 2.54389 72.9984 1.96949 73.4788 1.48537C73.9593 1.00125 74.5308 0.616987 75.1606 0.354757C75.7904 0.0925283 76.4658 -0.0424805 77.1481 -0.0424805C77.8303 -0.0424805 78.5057 0.0925283 79.1355 0.354757C79.7653 0.616987 80.3368 1.00125 80.8173 1.48537C81.2977 1.96949 81.6774 2.54389 81.9346 3.17544C82.1918 3.80699 82.3213 4.48319 82.3157 5.16502V19.6833C82.3142 21.0528 81.7691 22.3659 80.8001 23.3342C79.831 24.3025 78.5171 24.8471 77.1468 24.8483ZM77.1468 0.650866C75.9493 0.652161 74.8013 1.12817 73.9545 1.97446C73.1078 2.82075 72.6315 3.96819 72.6302 5.16502V19.6833C72.625 20.2794 72.7379 20.8706 72.9625 21.4229C73.1872 21.9752 73.519 22.4775 73.9389 22.9009C74.3588 23.3243 74.8585 23.6603 75.409 23.8897C75.9596 24.119 76.5502 24.2371 77.1466 24.2371C77.7431 24.2371 78.3337 24.119 78.8843 23.8897C79.4348 23.6603 79.9345 23.3243 80.3544 22.9009C80.7743 22.4775 81.1061 21.9752 81.3308 21.4229C81.5554 20.8706 81.6683 20.2794 81.6631 19.6833V5.16502C81.6618 3.96825 81.1856 2.82086 80.3389 1.97458C79.4922 1.12831 78.3442 0.652254 77.1468 0.650866Z" fill="#262626"/>
<path d="M184.694 19.6832V5.16461C184.694 2.49188 182.526 0.325195 179.852 0.325195C177.178 0.325195 175.01 2.49188 175.01 5.16461V19.6832C175.01 22.3559 177.178 24.5226 179.852 24.5226C182.526 24.5226 184.694 22.3559 184.694 19.6832Z" fill="white"/>
<path d="M179.852 24.8483C178.482 24.8468 177.168 24.3022 176.2 23.3338C175.231 22.3655 174.686 21.0527 174.684 19.6833V5.16502C174.684 3.79517 175.229 2.48143 176.198 1.5128C177.167 0.54417 178.482 0 179.852 0C181.223 0 182.537 0.54417 183.506 1.5128C184.476 2.48143 185.02 3.79517 185.02 5.16502V19.6833C185.019 21.0527 184.474 22.3655 183.505 23.3338C182.536 24.3022 181.222 24.8468 179.852 24.8483ZM179.852 0.650868C178.655 0.652533 177.507 1.12871 176.661 1.97496C175.814 2.8212 175.338 3.96843 175.337 5.16502V19.6833C175.337 20.8805 175.813 22.0287 176.66 22.8752C177.507 23.7218 178.656 24.1974 179.854 24.1974C181.051 24.1974 182.2 23.7218 183.047 22.8752C183.894 22.0287 184.37 20.8805 184.37 19.6833V5.16502C184.369 3.96795 183.892 2.8203 183.045 1.97397C182.198 1.12764 181.05 0.651793 179.852 0.650868Z" fill="#262626"/>
<g opacity="0.08">
<path d="M69.0364 53.4517H41.1667V80.8297H69.0364V53.4517Z" fill="#054871"/>
<path d="M69.0364 88.4429H41.1667V115.821H69.0364V88.4429Z" fill="#054871"/>
<path d="M69.0364 123.434H41.1667V150.812H69.0364V123.434Z" fill="#054871"/>
<path d="M105.733 53.4517H77.8638V80.8297H105.733V53.4517Z" fill="#054871"/>
<path d="M105.733 88.4429H77.8638V115.821H105.733V88.4429Z" fill="#054871"/>
<path d="M142.061 53.4517H114.191V80.8297H142.061V53.4517Z" fill="#054871"/>
<path d="M142.061 88.4429H114.191V115.821H142.061V88.4429Z" fill="#054871"/>
<path d="M179.417 53.4517H151.547V80.8297H179.417V53.4517Z" fill="#054871"/>
<path d="M179.417 88.4429H151.547V115.821H179.417V88.4429Z" fill="#054871"/>
<path d="M105.733 123.434H77.8638V150.812H105.733V123.434Z" fill="#054871"/>
<path d="M142.061 123.434H114.191V150.812H142.061V123.434Z" fill="#054871"/>
<path d="M215.833 53.4517H187.964V80.8297H215.833V53.4517Z" fill="#054871"/>
<path d="M215.833 88.4429H187.964V115.821H215.833V88.4429Z" fill="#054871"/>
</g>
<path d="M110.538 93.4633C113.431 93.4633 115.777 91.1189 115.777 88.227C115.777 85.3351 113.431 82.9907 110.538 82.9907C107.644 82.9907 105.299 85.3351 105.299 88.227C105.299 91.1189 107.644 93.4633 110.538 93.4633Z" fill="#292A2E"/>
<path d="M146.462 93.4633C149.356 93.4633 151.701 91.1189 151.701 88.227C151.701 85.3351 149.356 82.9907 146.462 82.9907C143.569 82.9907 141.223 85.3351 141.223 88.227C141.223 91.1189 143.569 93.4633 146.462 93.4633Z" fill="#292A2E"/>
<path d="M135.524 102.708H121.476C121.383 102.708 121.294 102.672 121.228 102.606C121.163 102.541 121.126 102.452 121.126 102.359C121.126 102.266 121.163 102.178 121.228 102.112C121.294 102.047 121.383 102.01 121.476 102.01H135.524C135.617 102.01 135.706 102.047 135.771 102.112C135.837 102.178 135.874 102.266 135.874 102.359C135.874 102.452 135.837 102.541 135.771 102.606C135.706 102.672 135.617 102.708 135.524 102.708Z" fill="#262626"/>
<path d="M105.133 103.206C107.714 103.206 109.807 102.105 109.807 100.747C109.807 99.3893 107.714 98.2886 105.133 98.2886C102.552 98.2886 100.46 99.3893 100.46 100.747C100.46 102.105 102.552 103.206 105.133 103.206Z" fill="white"/>
<path d="M151.867 103.206C154.448 103.206 156.54 102.105 156.54 100.747C156.54 99.3893 154.448 98.2886 151.867 98.2886C149.286 98.2886 147.193 99.3893 147.193 100.747C147.193 102.105 149.286 103.206 151.867 103.206Z" fill="white"/>
<g opacity="0.4">
<path d="M105.133 103.206C107.714 103.206 109.807 102.105 109.807 100.747C109.807 99.3893 107.714 98.2886 105.133 98.2886C102.552 98.2886 100.46 99.3893 100.46 100.747C100.46 102.105 102.552 103.206 105.133 103.206Z" fill="#054871"/>
<path d="M151.867 103.206C154.448 103.206 156.54 102.105 156.54 100.747C156.54 99.3893 154.448 98.2886 151.867 98.2886C149.286 98.2886 147.193 99.3893 147.193 100.747C147.193 102.105 149.286 103.206 151.867 103.206Z" fill="#054871"/>
</g>
</g>
<defs>
<clipPath id="clip0_2_5973">
<rect width="257" height="187" fill="white"/>
</clipPath>
</defs>
</svg>
